<svg width="150" height="120" viewBox="0 0 150 120" fill="none" xmlns="http://www.w3.org/2000/svg">
<path d="M87.1441 45.2135C87.1441 39.3149 82.9804 36.0587 75.6673 36.0587H62.2153V55.0623H73.5587C82.3132 55.0356 87.1441 51.5125 87.1441 45.2135ZM136.121 41.7972C133.585 33.5498 133.212 23.4342 133.505 15.6139C133.799 7.47331 127.447 0 118.906 0H31.1477C22.5801 0 16.2544 7.5 16.548 15.6139C16.8149 23.4342 16.468 33.5498 13.9324 41.7972C11.3701 50.0712 7.07295 55.3025 0 55.9697V63.5765C7.04626 64.2438 11.3701 69.4751 13.9324 77.7491C16.468 85.9964 16.8416 96.1121 16.548 103.932C16.2544 112.073 22.6068 119.546 31.1477 119.546H118.879C127.447 119.546 133.772 112.046 133.479 103.932C133.212 96.1121 133.559 85.9964 136.094 77.7491C138.657 69.4751 142.954 64.2438 150 63.5765V55.9697C142.98 55.3025 138.657 50.0712 136.121 41.7972ZM78.2562 91.5747H52.1263V27.9715H78.1228C89.6797 27.9715 97.2598 34.2171 97.2598 43.8256C97.2598 50.5783 92.1619 56.6103 85.6495 57.6512V57.9982C94.5107 58.9591 100.463 65.0979 100.463 73.5587C100.463 84.7954 92.1085 91.5747 78.2562 91.5747ZM75.5872 62.5623H62.2153V83.4875H76.1744C85.3025 83.4875 90.1335 79.831 90.1335 72.9448C90.1335 66.0854 85.169 62.5623 75.5872 62.5623Z" fill="#5BCEFA"/>
</svg>
