<svg width="47" height="50" viewBox="0 0 47 50" fill="none" xmlns="http://www.w3.org/2000/svg">
<path d="M25.7992 48.8733C24.297 50.3756 21.8574 50.3756 20.3551 48.8733L1.12667 29.6449C-0.375556 28.1427 -0.375556 25.703 1.12667 24.2008C2.62889 22.6986 5.0685 22.6986 6.57072 24.2008L23.0832 40.7133L39.5956 24.2128C41.0978 22.7106 43.5374 22.7106 45.0397 24.2128C46.5419 25.7151 46.5419 28.1547 45.0397 29.6569L25.8112 48.8854L25.7992 48.8733ZM45.0276 6.57072L25.7992 25.7992C24.297 27.3014 21.8574 27.3014 20.3551 25.7992L1.12667 6.57072C-0.375556 5.0685 -0.375556 2.62889 1.12667 1.12667C2.62889 -0.375556 5.0685 -0.375556 6.57072 1.12667L23.0832 17.6391L39.5956 1.13869C41.0978 -0.363538 43.5374 -0.363538 45.0397 1.13869C46.5419 2.64091 46.5419 5.08052 45.0397 6.58274L45.0276 6.57072Z" fill="white"/>
</svg>
