<svg width="92" height="92" viewBox="0 0 92 92" fill="none" xmlns="http://www.w3.org/2000/svg">
<path d="M7.60003 41.5C5.00003 40.9 3.90003 38.9 4.50003 36.3C5.10003 33.7 6.90003 32.7 9.00003 33.2H9.20003L8.80003 35.1H8.60003C7.60003 34.8 6.60003 35.4 6.30003 36.4C6.30003 36.5 6.20003 36.6 6.20003 36.7C5.80003 37.9 6.50003 39.1 7.70003 39.5C7.80003 39.5 7.90003 39.6 8.00003 39.6L10.5 40.2C11.7 40.6 12.9 39.9 13.3 38.7C13.3 38.6 13.4 38.5 13.4 38.4C13.8 37.4 13.3 36.3 12.3 35.9C12.2 35.9 12.1 35.8 11.9 35.8H11.8L11.2 38.3L9.60003 37.9L10.6 33.5L12.1 33.8C14.5 34.4 15.7 36.2 15.1 38.7C14.5 41.2 12.7 42.6 10 42L7.60003 41.5Z" fill="#5BCEFA"/>
<path d="M10.5 22.5L12.1 23.4L9.70005 27.7L11.9 28.9L14.1 24.9L15.7 25.8L13.5 29.8L15.8 31L18.2 26.6L19.8 27.5L16.5 33.6L7.30005 28.6L10.5 22.5Z" fill="#5BCEFA"/>
<path d="M18.4001 13.5L19.7001 14.8L17.5001 17.1L23.8001 23.1L22.4001 24.5L16.1001 18.5L13.9001 20.8L12.6001 19.6L18.4001 13.5Z" fill="#5BCEFA"/>
<path d="M27.9001 7.59998L32.6001 17L30.8001 17.9L26.1001 8.49998L27.9001 7.59998Z" fill="#5BCEFA"/>
<path d="M34.8 5.1L39.4 12.7H39.5L37.4 4.5L39.3 4L41.9 14.2L38.6 15.1L34 7.3H33.9L36 15.5L34.1 16L31.5 5.9L34.8 5.1Z" fill="#5BCEFA"/>
<path d="M57.5001 4.89998L57.2001 6.69998L54.0001 6.19998L52.5001 14.8L50.5001 14.5L52.0001 5.89998L48.9001 5.39998L49.2001 3.59998L57.5001 4.89998Z" fill="#5BCEFA"/>
<path d="M64.7999 7.69998C67.1999 8.89998 67.9999 11 66.7999 13.4L65.6999 15.7C64.4999 18.1 62.2999 18.7 59.9999 17.6C57.6999 16.5 56.7999 14.3 57.9999 11.9L59.0999 9.59998C60.2999 7.19998 62.3999 6.59998 64.7999 7.69998ZM59.6999 12.8C59.0999 13.9 59.4999 15.4 60.6999 16C61.7999 16.6 63.2999 16.2 63.8999 15V14.9L65.0999 12.5C65.6999 11.4 65.1999 9.89998 64.0999 9.29998C62.9999 8.69998 61.4999 9.19998 60.8999 10.3V10.4L59.6999 12.8Z" fill="#5BCEFA"/>
<path d="M73.5001 13.6L68.8001 18.6C68.0001 19.5 68.1001 20.8 69.0001 21.6C69.8001 22.3 71.1001 22.3 71.9001 21.5L76.6001 16.5L78.0001 17.9L73.3001 22.9C71.7001 24.7 69.5001 24.7 67.6001 22.9C65.7001 21.1 65.6001 19 67.3001 17.2L72.0001 12.2L73.5001 13.6Z" fill="#5BCEFA"/>
<path d="M77.2 23.2C79.5 21.9 81.7 22.6 83 24.8C84.3 27 83.8 29.2 81.8 30.3L81.6 30.4L80.6 28.7L80.9 28.6C81.9 28.1 82.2 26.8 81.6 25.9C81.6 25.8 81.5 25.8 81.5 25.7C81 24.6 79.6 24.2 78.5 24.7C78.4 24.8 78.3 24.8 78.2 24.9L76 26.2C74.9 26.7 74.4 28 74.9 29.1C74.9 29.2 75 29.3 75.1 29.4C75.5 30.4 76.7 30.9 77.7 30.4C77.8 30.4 77.8 30.3 77.9 30.3L78.3 30.1L79.3 31.8L78.9 32C76.9 33.1 74.9 32.6 73.5 30.3C72.1 28 72.6 25.8 75 24.5L77.2 23.2Z" fill="#5BCEFA"/>
<path d="M86.9 34.4L82.7 35.4L83.6 39.3L87.8 38.3L88.2 40.2L78 42.6L77.6 40.7L81.9 39.7L81 35.8L76.7 36.8L76.3 34.9L86.5 32.5L86.9 34.4Z" fill="#5BCEFA"/>
<path d="M84.4 50.5C87 51.1 88.1 53.1 87.5 55.7C86.9 58.3 85.1 59.3 83 58.8H82.8L83.2 56.9H83.4C84.4 57.2 85.4 56.6 85.7 55.6C85.7 55.5 85.8 55.4 85.8 55.3C86.2 54.1 85.5 52.9 84.3 52.5C84.2 52.5 84.1 52.4 84 52.4L81.5 51.8C80.3 51.4 79.1 52.1 78.7 53.3C78.7 53.4 78.6 53.5 78.6 53.6C78.2 54.6 78.7 55.7 79.7 56.1C79.8 56.1 79.9 56.2 80.1 56.2H80.2L80.8 53.7L82.4 54.1L81.4 58.5L79.9 58.2C77.5 57.6 76.3 55.8 76.9 53.3C77.5 50.8 79.3 49.4 82 50L84.4 50.5Z" fill="#5BCEFA"/>
<path d="M81.5 69.5L79.9 68.6L82.3 64.3L80.1 63.1L77.9 67.1L76.3 66.2L78.5 62.2L76.2 61L73.8 65.4L72.2 64.5L75.5 58.4L84.7 63.4L81.5 69.5Z" fill="#5BCEFA"/>
<path d="M73.6 78.4999L72.3 77.1999L74.5 74.8999L68.2 68.8999L69.6 67.4999L75.9 73.4999L78.1 71.1999L79.4 72.4999L73.6 78.4999Z" fill="#5BCEFA"/>
<path d="M64.1001 84.4L59.4001 75L61.2001 74.1L65.9001 83.5L64.1001 84.4Z" fill="#5BCEFA"/>
<path d="M57.2001 86.9L52.6001 79.3H52.5001L54.6001 87.5L52.7001 88L50.1001 77.8L53.4001 76.9L58.0001 84.5H58.1001L56.0001 76.4L57.9001 75.9L60.5001 86.1L57.2001 86.9Z" fill="#5BCEFA"/>
<path d="M34.5 87.1L34.8 85.3L37.9 85.8L39.4 77.2L41.4 77.5L39.9 86.1L43 86.6L42.7 88.4L34.5 87.1Z" fill="#5BCEFA"/>
<path d="M27.2 84.3C24.8 83.1 24 81 25.2 78.6L26.3 76.3C27.5 73.9 29.7 73.3 32 74.4C34.3 75.5 35.2 77.7 34 80.1L32.9 82.4C31.7 84.8 29.6 85.4 27.2 84.3ZM32.3 79.2C32.9 78.1 32.5 76.6 31.3 76C30.2 75.4 28.7 75.8 28.1 77V77.1L26.9 79.5C26.3 80.6 26.8 82.1 27.9 82.7C29 83.3 30.5 82.8 31.1 81.7V81.6L32.3 79.2Z" fill="#5BCEFA"/>
<path d="M18.5 78.3999L23.2 73.3999C24 72.4999 23.9 71.1999 23 70.3999C22.2 69.6999 20.9 69.6999 20.1 70.4999L15.4 75.4999L14 74.0999L18.7 69.0999C20.3 67.2999 22.5 67.2999 24.4 69.0999C26.3 70.8999 26.4 72.9999 24.7 74.7999L20 79.7999L18.5 78.3999Z" fill="#5BCEFA"/>
<path d="M14.8 68.8C12.5 70.1 10.3 69.4 8.99998 67.2C7.69998 65 8.19998 62.8 10.2 61.7L10.4 61.6L11.4 63.3L11.1 63.4C10.1 63.9 9.79998 65.2 10.4 66.1C10.4 66.2 10.5 66.2 10.5 66.3C11 67.4 12.4 67.8 13.5 67.3C13.6 67.2 13.7 67.2 13.8 67.1L16 65.8C17.1 65.3 17.6 64 17.1 62.9C17.1 62.8 17 62.7 16.9 62.6C16.5 61.6 15.3 61.1 14.3 61.6C14.2 61.6 14.2 61.7 14.1 61.7L13.7 61.9L12.7 60.2L13 60C15 58.9 17 59.4 18.4 61.7C19.8 64 19.3 66.2 16.9 67.5L14.8 68.8Z" fill="#5BCEFA"/>
<path d="M5.10005 57.6L9.30005 56.6L8.40005 52.7L4.20005 53.7L3.80005 51.8L14 49.4L14.4 51.3L10.1 52.3L11 56.2L15.3 55.2L15.7 57.1L5.60005 59.5L5.10005 57.6Z" fill="#5BCEFA"/>
</svg>
