<svg width="1440" height="763" viewBox="0 0 1440 763" fill="none" xmlns="http://www.w3.org/2000/svg">
<g opacity="0.25" filter="url(#filter0_f_104_2535)">
<path d="M794.876 90.0622C794.876 90.0622 821.436 112.594 824.059 118.824C826.671 125.059 782.646 161.653 782.646 161.653L784.278 180.42L766.214 180.937C766.214 180.937 727.883 223.781 718.618 221.77C709.354 219.759 691.948 197.331 691.948 197.331L701.628 186.766C701.628 186.766 717.516 203.275 722.36 203.543C727.197 203.818 760.883 166.55 760.883 166.55L769.947 165.754L770.335 156.235C770.335 156.235 795.362 130.609 801.495 122.9C805.58 117.772 786.188 99.5435 786.188 99.5435L794.876 90.0622" fill="white"/>
<path d="M736.089 36.1938C736.089 36.1938 711.327 11.6979 704.89 9.62604C698.449 7.56482 665.83 54.6115 665.83 54.6115L646.999 54.6267L648.055 72.6642C648.055 72.6642 608.715 114.583 611.529 123.64C614.34 132.694 638.194 148.075 638.194 148.075L647.874 137.511C647.874 137.511 630.05 123.126 629.358 118.321C628.661 113.527 662.85 76.719 662.85 76.719L662.858 67.6247L672.302 66.404C672.302 66.404 695.651 39.2413 702.796 32.4592C707.547 27.9408 727.401 45.6751 727.401 45.6751L736.089 36.1938" fill="white"/>
<path d="M189.364 475L80 601.761L191.373 696.301V647.509L126.947 591.727L186.774 524.083L189.364 475Z" fill="white"/>
<path d="M381.597 480.699L490.961 607.461L379.588 702V653.199L444.023 597.426L372.316 521.556L381.597 480.699Z" fill="white"/>
<path d="M213.188 696.301L308.482 486.389H353.256L245.337 696.301H213.188Z" fill="white"/>
<path d="M899 480.314L941.258 419L1169.71 610.731L1134.66 657.474L899 480.314Z" fill="white"/>
<path d="M1175.57 480.314L1133.31 419L904.876 610.731L939.913 657.474L1175.57 480.314" fill="white"/>
<path d="M187.323 32.8366L215.471 106.489L260.309 48.0799L187.323 32.8366ZM214.847 110.733L184 30L264 46.7098L214.847 110.733" fill="#744CA2"/>
<path d="M385.059 752.212L383 750.4L439.941 685.454L442 687.266L385.059 752.212Z" fill="#744CA2"/>
<path d="M1110 162.001C1110 181.326 1094.33 196.995 1075 196.995C1055.67 196.995 1040 181.326 1040 162.001C1040 142.669 1055.67 127 1075 127C1094.33 127 1110 142.669 1110 162.001Z" fill="url(#paint0_linear_104_2535)"/>
<path d="M1230.67 751.127L1168 705.66L1169.33 703.832L1232 749.302L1230.67 751.127" fill="#744CA2"/>
<path d="M1177.44 758.965L1175.65 757.6L1222.56 696L1224.36 697.365L1177.44 758.965Z" fill="#744CA2"/>
</g>
<defs>
<filter id="filter0_f_104_2535" x="-4" y="-4" width="1448" height="767" filterUnits="userSpaceOnUse" color-interpolation-filters="sRGB">
<feFlood flood-opacity="0" result="BackgroundImageFix"/>
<feBlend mode="normal" in="SourceGraphic" in2="BackgroundImageFix" result="shape"/>
<feGaussianBlur stdDeviation="2" result="effect1_foregroundBlur_104_2535"/>
</filter>
<linearGradient id="paint0_linear_104_2535" x1="1075" y1="196.995" x2="1075" y2="126.998" gradientUnits="userSpaceOnUse">
<stop stop-color="#459FFF"/>
<stop offset="1" stop-color="#A96DFF"/>
</linearGradient>
</defs>
</svg>
