<svg width="151" height="145" viewBox="0 0 151 145" fill="none" xmlns="http://www.w3.org/2000/svg">
<path d="M10.0244 33.9323C-3.2484 53.0207 -1.60689 77.8497 8.54232 98.1857C8.77682 98.6734 9.03477 99.1518 9.28335 99.6302L9.75235 100.545C9.84615 100.723 9.94933 100.897 10.0478 101.07C10.2214 101.398 10.3996 101.699 10.5778 102.017L11.5486 103.678L12.102 104.588L13.2277 106.346L13.706 107.087C14.236 107.875 14.7754 108.663 15.3335 109.432L15.6524 109.864C16.1359 110.528 16.6299 111.185 17.1344 111.834L17.6973 112.547L19.0667 114.235L19.592 114.863C20.2158 115.6 20.8583 116.331 21.5009 117.044C21.5665 117.115 21.5947 117.138 21.6134 117.166C22.2506 117.857 22.8979 118.539 23.5551 119.211L24.1789 119.84L25.7266 121.359L26.3597 121.969C27.0562 122.626 27.7646 123.27 28.4843 123.901L30.8106 125.871L31.6079 126.509L33.2165 127.766L34.0748 128.422L35.8805 129.717L36.7247 130.312C37.3016 130.711 37.8878 131.091 38.4788 131.471L39.2385 131.977C40.1438 132.552 41.0585 133.112 41.9822 133.656L42.742 134.125L44.8056 135.279C45.1808 135.481 45.5654 135.673 45.9453 135.865L47.4179 136.63L47.7603 136.794L48.37 137.085L50.7056 138.163L51.1981 138.384C52.0997 138.777 53.0081 139.153 53.923 139.514L54.5796 139.777L57.1497 140.729L57.478 140.841C58.427 141.168 59.3807 141.481 60.339 141.779L61.0331 141.986C61.9711 142.281 62.9841 142.642 63.9878 142.821C128.213 154.532 146.861 104.222 146.861 104.222C131.196 124.633 103.384 130.017 76.9792 124.023C75.9802 123.798 75.0094 123.488 74.0385 123.198L73.3069 122.977C72.3574 122.685 71.413 122.377 70.4741 122.053L70.0848 121.913C69.249 121.616 68.4172 121.308 67.5897 120.989L66.8862 120.707C65.9797 120.351 65.0806 119.975 64.1895 119.582L63.6501 119.347L61.3755 118.287L60.7188 117.973C60.1279 117.691 59.5463 117.377 58.9601 117.035L57.7876 116.425C57.0747 116.05 56.3806 115.647 55.6771 115.243L54.9642 114.845C54.0409 114.299 53.1262 113.74 52.2205 113.166C51.972 113.006 51.7281 112.837 51.4795 112.673L49.5285 111.374C49.3127 111.233 49.0594 111.074 48.9 110.933L47.0521 109.597L46.2314 108.977L44.5664 107.674L43.8254 107.078L41.7524 105.329C41.677 105.263 41.5988 105.2 41.5179 105.141L39.337 103.157L38.7273 102.566L37.1702 101.018L36.5605 100.409C35.9039 99.7381 35.2661 99.0627 34.6845 98.3733C34.6517 98.3405 34.6189 98.3076 34.5907 98.2701C33.9267 97.5412 33.2762 96.8001 32.6397 96.047L32.1707 95.4373L30.7637 93.702L30.2947 93.0595L28.6719 90.9021C13.9546 70.9601 8.6924 43.3921 20.3893 20.7862M51.2497 17.8549C41.6445 31.6764 42.1651 50.2161 49.6551 64.7927C50.9102 67.2495 52.3298 69.6186 53.9042 71.884C55.3441 73.9476 56.9387 76.4005 58.8475 78.0561C59.5416 78.8206 60.2639 79.5569 61.0049 80.2932L61.5677 80.856C62.2846 81.5551 63.018 82.2369 63.7674 82.9009C63.8002 82.9243 63.8236 82.9572 63.8612 82.9806C64.7147 83.731 65.5777 84.3876 66.4547 85.1287L67.0363 85.5836C67.9162 86.2622 68.8139 86.9175 69.7284 87.5487L69.8081 87.605C70.2115 87.8864 70.6242 88.1443 71.0369 88.4164C71.2339 88.543 71.4215 88.679 71.6185 88.8009C72.2741 89.2216 72.9387 89.6281 73.6117 90.0203L73.8931 90.1845L75.6566 91.1225C75.8629 91.2398 76.1256 91.3382 76.285 91.4508L77.5185 92.0886C77.5795 92.1215 77.6452 92.1449 77.7061 92.1731C78.5521 92.5944 79.4091 92.9932 80.2763 93.369L80.8391 93.6035C81.5376 93.9001 82.2412 94.1847 82.9496 94.4571L83.8501 94.7854C84.4922 95.0189 85.138 95.2424 85.787 95.4561L86.6641 95.7375C87.588 96.0189 88.5401 96.3941 89.464 96.5489C139.052 104.766 150.5 66.5327 150.5 66.5327C140.182 81.4001 120.202 88.482 98.8722 82.9478C97.9294 82.6997 96.9927 82.4292 96.0629 82.1364C95.7815 82.052 95.5001 81.9582 95.2187 81.8644L93.2489 81.189L92.3109 80.8607C91.6028 80.5875 90.8992 80.303 90.2003 80.0071L89.6282 79.7726C88.7556 79.3934 87.8924 78.993 87.0393 78.572L85.7401 77.9154L84.9897 77.5308C84.4379 77.2312 83.8907 76.9232 83.3482 76.6069L82.9543 76.3864C82.2833 75.9934 81.6203 75.5868 80.9657 75.167C80.764 75.0404 80.567 74.8997 80.3654 74.7684L79.0756 73.9148C78.1672 73.2852 77.2758 72.6315 76.4023 71.9544L75.7926 71.4854C66.4125 64.1126 59.0586 54.0385 55.5411 42.6229C51.8547 30.7806 52.6473 17.4844 59.0351 6.69736M85.9184 5.83908C80.2622 14.2108 79.6994 24.5195 83.6296 33.7213C87.7709 43.4906 96.2599 51.1494 106.17 54.8264L107.399 55.2954L107.943 55.4642L109.711 55.9332C137.091 61.2236 144.511 41.8819 146.495 39.0351C139.99 48.4011 129.057 50.6476 115.644 47.3927C114.584 47.1348 113.421 46.7502 112.398 46.389C111.086 45.9239 109.799 45.3901 108.543 44.7897C106.159 43.6432 103.895 42.2622 101.785 40.6672C89.7829 31.5639 82.3258 14.1451 90.1581 0" fill="#5BCEFA"/>
</svg>
