<svg width="151" height="150" viewBox="0 0 151 150" fill="none" xmlns="http://www.w3.org/2000/svg">
<path d="M134.429 0H16.5714C7.69866 0 0.5 7.19866 0.5 16.0714V133.929C0.5 142.801 7.69866 150 16.5714 150H134.429C143.301 150 150.5 142.801 150.5 133.929V16.0714C150.5 7.19866 143.301 0 134.429 0ZM82.1295 116.987C82.1295 131.585 73.558 138.248 61.0692 138.248C49.7857 138.248 43.2567 132.422 39.9085 125.357L51.3929 118.426C53.6027 122.344 55.6116 125.658 60.4665 125.658C65.0871 125.658 68.0335 123.85 68.0335 116.786V68.8728H82.1295V116.987ZM115.478 138.248C102.386 138.248 93.9152 132.02 89.7969 123.85L101.281 117.221C104.295 122.143 108.246 125.792 115.176 125.792C121.002 125.792 124.752 122.879 124.752 118.828C124.752 114.007 120.935 112.299 114.473 109.453L110.958 107.946C100.779 103.627 94.0491 98.1696 94.0491 86.6853C94.0491 76.1049 102.118 68.0692 114.674 68.0692C123.647 68.0692 130.076 71.183 134.696 79.3527L123.714 86.3839C121.304 82.0647 118.692 80.3571 114.641 80.3571C110.522 80.3571 107.911 82.9688 107.911 86.3839C107.911 90.6027 110.522 92.3103 116.583 94.9554L120.098 96.4621C132.085 101.585 138.815 106.842 138.815 118.627C138.815 131.283 128.837 138.248 115.478 138.248Z" fill="#5BCEFA"/>
</svg>
