<svg width="21" height="24" viewBox="0 0 21 24" fill="none" xmlns="http://www.w3.org/2000/svg">
<path d="M11.9732 0C5.35714 0 0 5.37321 0 12C0 18.6268 5.35714 24 11.9732 24C15.2196 24 18.1607 22.7036 20.3196 20.6036C20.5875 20.3411 20.6571 19.9339 20.4857 19.6018C20.3143 19.2696 19.9446 19.0821 19.575 19.1464C19.05 19.2375 18.5143 19.2857 17.9625 19.2857C12.7714 19.2857 8.56071 15.0643 8.56071 9.85714C8.56071 6.33214 10.4893 3.2625 13.3446 1.64464C13.6714 1.45714 13.8375 1.08214 13.7571 0.717857C13.6768 0.353572 13.3661 0.0803572 12.9911 0.0482144C12.6536 0.0214287 12.3161 0.00535706 11.9732 0.00535706V0Z" fill="white"/>
</svg>
