<svg width="150" height="115" viewBox="0 0 150 115" fill="none" xmlns="http://www.w3.org/2000/svg">
<path d="M115.167 107.644H98.8167C98.2265 107.644 97.7445 107.162 97.7445 106.571V102.592C97.7445 102.002 97.2622 101.519 96.6724 101.519H73.7937C73.2035 101.519 72.7211 102.002 72.7211 102.592V106.571C72.7211 107.162 72.2388 107.644 71.6486 107.644H59.3567C58.7665 107.644 58.2842 108.126 58.2842 108.716V113.32C58.2842 113.91 58.7665 114.392 59.3567 114.392H115.166C115.756 114.392 116.239 113.91 116.239 113.32V108.716C116.239 108.127 115.757 107.644 115.167 107.644Z" fill="#5BCEFA"/>
<path d="M142.637 0H25.9645C21.9052 0 18.6029 3.30271 18.6029 7.3628C18.6029 7.3628 18.6029 21.4018 18.6029 26.5665C18.6029 29.1054 18.4145 29.4645 20.1176 29.4645C21.0222 29.4645 22.024 29.4645 23.0382 29.4645C24.4675 29.4645 24.1743 29.1054 24.1743 26.5193C24.1743 21.3662 24.1743 7.3628 24.1743 7.3628C24.1743 6.39242 24.9945 5.57223 25.9645 5.57223H142.637C143.607 5.57223 144.427 6.39242 144.427 7.3628V79.2426H61.2467C61.2467 79.2426 58.3152 79.2373 58.3152 83.0281C58.3152 85.2757 58.3152 89.7708 58.3152 92.0192C58.3152 95.8046 61.3417 95.8046 61.3417 95.8046H142.637C146.696 95.8046 150 92.5023 150 88.4429V7.3628C150 3.30309 146.697 0 142.637 0ZM84.3014 89.4477C82.4684 89.4477 80.9832 87.9625 80.9832 86.1307C80.9832 84.2988 82.4684 82.8128 84.3014 82.8128C86.1324 82.8128 87.6181 84.2988 87.6181 86.1307C87.6181 87.9625 86.1324 89.4477 84.3014 89.4477Z" fill="#5BCEFA"/>
<path d="M46.9586 36.0403H4.75128C2.13068 36.0403 0 38.1713 0 40.7919V110.165C0 112.785 2.13068 114.917 4.75128 114.917H46.9586C49.5777 114.917 51.7099 112.785 51.7099 110.165V40.7919C51.7099 38.1713 49.5777 36.0403 46.9586 36.0403ZM20.6485 40.8865H31.0609C31.5577 40.8865 31.9613 41.2891 31.9613 41.7873C31.9613 42.2844 31.5581 42.6873 31.0609 42.6873H20.6485C20.151 42.6873 19.7485 42.2844 19.7485 41.7873C19.7485 41.2891 20.151 40.8865 20.6485 40.8865ZM25.7918 111.579C24.4336 111.579 23.3327 110.478 23.3327 109.12C23.3327 107.762 24.4336 106.661 25.7918 106.661C27.1499 106.661 28.2508 107.762 28.2508 109.12C28.2508 110.478 27.1499 111.579 25.7918 111.579ZM47.6274 104.352C47.6274 104.986 47.1197 105.505 46.5001 105.505H5.21094C4.59088 105.505 4.08355 104.986 4.08355 104.352V46.7058C4.08355 46.0717 4.59125 45.5534 5.21094 45.5534H46.5001C47.1201 45.5534 47.6274 46.0721 47.6274 46.7058V104.352Z" fill="#5BCEFA"/>
</svg>
