<svg width="25" height="25" viewBox="0 0 25 25" fill="none" xmlns="http://www.w3.org/2000/svg">
<path d="M17.6506 0.0603928C17.8947 0.162917 18.0705 0.382612 18.1193 0.641364L19.0908 5.90916L24.3586 6.87581C24.6174 6.92463 24.8371 7.10039 24.9396 7.3445C25.0421 7.5886 25.0128 7.86688 24.8615 8.08658L21.8199 12.5L24.8615 16.9085C25.0128 17.1282 25.0421 17.4065 24.9396 17.6506C24.8371 17.8947 24.6174 18.0705 24.3586 18.1193L19.0908 19.0908L18.1193 24.3586C18.0705 24.6174 17.8947 24.8371 17.6506 24.9396C17.4065 25.0421 17.1282 25.0128 16.9085 24.8615L12.5 21.8199L8.09146 24.8615C7.87176 25.0128 7.59348 25.0421 7.34938 24.9396C7.10527 24.8371 6.92952 24.6174 6.88069 24.3586L5.90916 19.0908L0.641364 18.1193C0.382612 18.0705 0.162917 17.8947 0.0603928 17.6506C-0.0421314 17.4065 -0.0128388 17.1282 0.138507 16.9085L3.18006 12.5L0.138507 8.09146C-0.0128388 7.87176 -0.0421314 7.59348 0.0603928 7.34938C0.162917 7.10527 0.382612 6.92952 0.641364 6.88069L5.90916 5.90916L6.88069 0.641364C6.92952 0.382612 7.10527 0.162917 7.34938 0.0603928C7.59348 -0.0421314 7.87176 -0.0128388 8.09146 0.138507L12.5 3.18006L16.9085 0.138507C17.1282 -0.0128388 17.4065 -0.0421314 17.6506 0.0603928V0.0603928ZM17.1868 12.5C17.1868 15.0875 15.0875 17.1868 12.5 17.1868C9.91248 17.1868 7.81318 15.0875 7.81318 12.5C7.81318 9.91248 9.91248 7.81318 12.5 7.81318C15.0875 7.81318 17.1868 9.91248 17.1868 12.5ZM18.7491 12.5C18.7491 9.04835 15.9516 6.2509 12.5 6.2509C9.04835 6.2509 6.2509 9.04835 6.2509 12.5C6.2509 15.9516 9.04835 18.7491 12.5 18.7491C15.9516 18.7491 18.7491 15.9516 18.7491 12.5Z" fill="white"/>
</svg>
